HIERARCHY
ROOT Hips
{
	OFFSET -0.179506 -22.333345 2.821913
	CHANNELS 6 Xposition Yposition Zposition Zrotation Yrotation Xrotation 
	JOINT LeftUpLeg
	{
		OFFSET 6.951974 -9.140623 -0.681533
		CHANNELS 3 Zrotation Yrotation Xrotation
		JOINT LeftLeg
		{
			OFFSET 3.427654 -37.519855 -0.449580
			CHANNELS 3 Zrotation Yrotation Xrotation
			JOINT LeftFoot
			{
				OFFSET -1.359570 -39.796059 -4.369333
				CHANNELS 3 Zrotation Yrotation Xrotation
				JOINT LeftToe
				{
					OFFSET 2.635814 -5.579078 11.928840
					CHANNELS 3 Zrotation Yrotation Xrotation
					End Site
					{
						OFFSET 0.000000 0.000000 0.000000
					}
				}
			}
		}
	}
	JOINT RightUpLeg
	{
		OFFSET -6.767048 -9.052170 -0.431982
		CHANNELS 3 Zrotation Yrotation Xrotation
		JOINT RightLeg
		{
			OFFSET -3.829005 -38.256897 -0.885003
			CHANNELS 3 Zrotation Yrotation Xrotation
			JOINT RightFoot
			{
				OFFSET 1.577377 -39.841461 -4.231180
				CHANNELS 3 Zrotation Yrotation Xrotation
				JOINT RightToe
				{
					OFFSET -2.537174 -4.814398 12.334795
					CHANNELS 3 Zrotation Yrotation Xrotation
					End Site
					{
						OFFSET 0.000000 0.000000 0.000000
					}
				}
			}
		}
	}
	JOINT Spine
	{
		OFFSET -0.253288 10.896323 -2.669631
		CHANNELS 3 Zrotation Yrotation Xrotation
		JOINT Spine1
		{
			OFFSET 0.548704 13.518043 0.109247
			CHANNELS 3 Zrotation Yrotation Xrotation
			JOINT Spine2
			{
				OFFSET 0.145701 5.292222 2.542457
				CHANNELS 3 Zrotation Yrotation Xrotation
				JOINT Neck
				{
					OFFSET -0.277840 21.387037 -4.285703
					CHANNELS 3 Zrotation Yrotation Xrotation
					JOINT Head
					{
						OFFSET 0.515184 6.496960 5.134897
						CHANNELS 3 Zrotation Yrotation Xrotation
						End Site
						{
							OFFSET 0.000000 0.000000 0.000000
						}
					}
				}
				JOINT LeftShoulder
				{
					OFFSET 7.884473 12.174932 -3.408961
					CHANNELS 3 Zrotation Yrotation Xrotation
					JOINT LeftArm
					{
						OFFSET 9.097692 3.046888 -0.886815
						CHANNELS 3 Zrotation Yrotation Xrotation
						JOINT LeftForeArm
						{
							OFFSET 25.961220 -1.277207 -2.745643
							CHANNELS 3 Zrotation Yrotation Xrotation
							JOINT LeftHand
							{
								OFFSET 24.923361 0.898606 -0.117091
								CHANNELS 3 Zrotation Yrotation Xrotation
								End Site
								{
									OFFSET 0.000000 0.000000 0.000000
								}
							}
						}
					}
				}
				JOINT RightShoulder
				{
					OFFSET -8.175920 11.883285 -3.861528
					CHANNELS 3 Zrotation Yrotation Xrotation
					JOINT RightArm
					{
						OFFSET -9.601238 3.255117 -0.914307
						CHANNELS 3 Zrotation Yrotation Xrotation
						JOINT RightForeArm
						{
							OFFSET -25.374195 -1.332924 -2.140099
							CHANNELS 3 Zrotation Yrotation Xrotation
							JOINT RightHand
							{
								OFFSET -25.529810 0.777228 -0.555919
								CHANNELS 3 Zrotation Yrotation Xrotation
								End Site
								{
									OFFSET 0.000000 0.000000 0.000000
								}
							}
						}
					}
				}
			}
		}
	}
}
MOTION
Frames: 12
Frame Time: 0.033333
-27.008106 131.871704 87.427483 -111.122860 -5.670828 87.468303 18.325443 6.442410 -5.263759 -5.775088 3.305538 21.245142 -1.482307 7.298664 -19.982268 nan nan nan -19.695093 -10.066629 -19.422908 1.774998 -9.888242 39.984138 2.096267 -1.298428 -25.485336 nan nan nan -3.552139 -0.545743 6.325832 5.125971 -5.426839 7.462165 0.689343 -0.195309 -4.649779 -0.034212 -10.243238 10.619942 1.792363 -11.715928 16.463372 -11.589523 -10.314754 -1.861434 -70.054472 -43.798100 33.051617 141.740242 -62.663102 -111.200323 -0.089189 -20.563452 -14.380983 14.135098 4.835031 -5.152541 35.252247 20.144891 -5.211733 -128.829920 48.920604 -109.477476 3.781940 11.256016 -6.337872 
-27.102850 131.636551 87.440178 -111.223833 -5.634374 87.422138 18.533730 6.485082 -5.092743 -5.369573 3.954980 21.675959 -1.383936 7.983279 -20.005077 nan nan nan -19.813748 -10.076209 -19.296919 1.854829 -9.735659 39.755535 2.133244 -1.282337 -25.274008 nan nan nan -3.536971 -0.457399 6.194862 5.109333 -5.438296 7.583429 0.627955 -0.207075 -4.530254 0.337078 -10.999820 10.887382 1.842577 -12.670112 16.343283 -11.432989 -10.204279 -2.121988 -70.238813 -44.012842 33.246546 141.454841 -62.656071 -110.911389 -0.628837 -20.536918 -14.140807 13.971960 4.957431 -5.344860 34.841870 20.327124 -5.500130 -127.691456 48.912555 -108.283797 4.469336 10.791039 -5.592106 
-27.173634 131.385391 87.454987 -111.363316 -5.559583 87.430204 18.835038 6.702307 -5.030120 -4.815447 4.916227 22.249661 -1.122425 8.565059 -19.941971 nan nan nan -19.843562 -10.060350 -19.293958 1.770837 -9.638610 39.605988 2.344380 -1.161825 -25.054242 nan nan nan -3.523324 -0.437007 6.016277 5.074399 -5.417321 7.669742 0.596053 -0.177604 -4.590522 0.258285 -10.235576 10.793308 1.938258 -12.206625 16.400335 -11.217524 -10.244646 -2.122419 -70.220969 -44.182788 33.081771 141.226155 -62.726779 -110.486307 -0.674962 -20.765696 -13.932757 13.945880 5.040495 -5.130243 34.295057 20.718953 -5.978150 -126.449657 48.903110 -106.957407 4.717020 10.583873 -4.584219 
-27.258114 131.133347 87.474655 -111.512392 -5.403462 87.480148 19.237042 7.054473 -4.942633 -4.246698 5.823455 22.749690 -1.071226 9.090414 -19.924140 nan nan nan -19.793308 -10.057258 -19.306216 1.704055 -9.567381 39.408715 2.491745 -1.127169 -24.727858 nan nan nan -3.434812 -0.420507 5.742737 5.125761 -5.390572 7.903526 0.575287 -0.189901 -4.711943 0.472085 -10.420029 10.898427 1.856734 -12.571391 16.329503 -11.108224 -10.253674 -2.279006 -70.131097 -44.217408 33.008854 141.181015 -62.809851 -110.340473 -0.431493 -20.801877 -13.941411 13.717926 5.133375 -5.253180 33.955955 20.886170 -6.173998 -125.397298 48.982020 -105.832095 3.725903 10.575417 -4.362120 
-27.365177 130.855881 87.497498 -111.679555 -5.264809 87.457166 19.626689 7.342386 -4.656713 -3.730229 6.624965 23.087319 -1.166848 9.538739 -19.571391 nan nan nan -19.804245 -10.017428 -19.187745 1.668533 -9.511191 39.123857 2.439773 -0.999008 -24.509657 nan nan nan -3.334731 -0.411393 5.539110 5.159443 -5.342983 8.169767 0.558536 -0.166682 -4.811027 0.729658 -10.805898 11.164182 1.710405 -13.125400 16.166315 -11.042770 -10.225000 -2.402966 -70.219242 -44.395998 33.061723 140.971903 -62.818908 -110.156999 -0.903541 -20.709660 -13.635434 13.475197 5.217487 -5.273517 33.490108 21.084750 -6.535585 -124.394303 49.050671 -104.445697 3.994559 10.123233 -3.434467 
-27.457411 130.549805 87.513893 -111.891767 -5.162410 87.486250 19.952567 7.532163 -4.437746 -3.132386 7.563907 23.462298 -1.041127 9.927040 -18.645778 nan nan nan -19.880629 -9.899059 -19.180262 1.631175 -9.533799 38.836155 2.342250 -0.732791 -24.261134 nan nan nan -3.203610 -0.426561 5.290364 5.081992 -5.274496 8.517339 0.487572 -0.103132 -5.253506 0.631576 -10.096683 11.446451 1.590896 -12.570527 16.178018 -10.975306 -10.232404 -2.238913 -70.209184 -44.621547 32.981254 140.567111 -62.895925 -109.846527 -1.420185 -20.834444 -13.402672 13.275511 5.334045 -4.938353 33.066752 21.294182 -6.852081 -123.109638 48.977440 -103.109694 5.526800 9.942696 -3.164857 
-27.561607 130.230759 87.532959 -112.070295 -5.039717 87.568357 20.265358 7.817956 -4.294935 -2.480250 8.571415 23.754028 -0.838460 10.126186 -17.194680 nan nan nan -19.889205 -9.802393 -19.236455 1.533053 -9.515509 38.555301 2.279267 -0.564109 -23.965752 nan nan nan -3.072001 -0.444354 4.913763 5.032229 -5.222501 8.956553 0.431295 -0.126346 -5.599869 0.742988 -10.006703 11.805719 1.528094 -12.691636 16.222037 -10.858936 -10.257597 -2.316831 -70.139674 -44.685785 32.966470 140.199047 -62.969392 -109.514873 -1.599553 -20.851128 -13.215959 12.984898 5.413946 -5.036594 32.884038 21.455070 -6.814664 -121.786098 48.966999 -102.139729 6.316193 10.018787 -3.560123 
-27.708826 129.898315 87.559669 -112.291594 -4.909000 87.605293 20.586308 8.286873 -4.006928 -1.880739 9.456643 23.897030 -0.805657 10.095693 -15.611839 nan nan nan -19.853187 -9.715025 -19.238728 1.383323 -9.418942 38.218373 2.248321 -0.503115 -23.648685 nan nan nan -2.979337 -0.519241 4.513679 5.025027 -5.142846 9.495752 0.447586 -0.163025 -5.925757 0.878488 -9.720826 12.124435 1.485651 -12.863146 16.022606 -10.753907 -10.328788 -2.605487 -70.028659 -44.514745 32.935568 139.909694 -62.977071 -109.060557 -1.665587 -20.725809 -13.069011 12.695585 5.538432 -5.212153 32.682726 21.686409 -6.682780 -120.451723 49.039009 -100.981707 6.025222 10.066096 -3.708636 
-27.847988 129.529099 87.587494 -112.506393 -4.779371 87.631876 20.889273 8.490838 -3.690047 -1.569628 9.746557 24.071263 -0.994805 10.168673 -14.125634 nan nan nan -19.842090 -9.663087 -19.189568 1.358991 -9.197280 37.783418 2.181700 -0.551455 -23.329593 nan nan nan -3.105271 -0.646917 4.362848 5.135542 -5.067673 9.624145 0.505559 0.192360 -5.955914 1.045803 -9.972090 12.077542 1.534076 -12.901139 16.022479 -10.587005 -10.571318 -2.619755 -70.095057 -44.741790 33.058710 139.645386 -63.034294 -108.606355 -1.616398 -20.575162 -12.798709 12.560808 5.425114 -5.559681 32.110756 21.695030 -6.840667 -119.236047 49.149631 -99.728545 6.027441 10.035580 -3.489256 
-27.959164 129.146912 87.611633 -112.676513 -4.581466 87.769868 21.219471 8.557627 -3.518704 -1.401811 9.783335 24.157086 -1.236709 10.113250 -12.641115 nan nan nan -19.757726 -9.498802 -19.248466 1.251267 -9.160473 37.364413 2.196421 -0.535172 -22.941803 nan nan nan -3.090988 -0.832809 4.084722 5.263966 -5.082315 9.696872 0.616092 0.289470 -5.955016 0.987142 -9.828826 12.287809 1.643171 -13.042583 15.640452 -10.490881 -10.582150 -2.817665 -70.033288 -44.694297 32.943904 139.503186 -63.007493 -108.447712 -1.956384 -20.794839 -12.620809 12.214228 5.736180 -5.440598 31.591106 21.870726 -7.185883 -117.866296 48.985596 -98.145708 6.678505 10.057527 -2.931475 
-28.061642 128.751999 87.647530 -112.819430 -4.418759 87.908226 21.452426 8.684327 -3.303876 -1.269617 9.779535 23.928556 -1.674206 9.876631 -11.607228 nan nan nan -19.736396 -9.376832 -19.272072 1.125119 -9.180126 36.898122 2.284650 -0.443635 -22.510246 nan nan nan -3.133392 -0.930698 3.809496 5.387156 -5.111382 9.794647 0.728976 0.336009 -5.939885 1.044030 -9.645118 12.495759 1.888410 -13.135380 15.127616 -10.351679 -10.583742 -3.023720 -70.121323 -44.738533 33.037205 139.142093 -63.007803 -107.998369 -2.052271 -20.843544 -12.591329 12.019767 5.914623 -5.425077 31.085020 22.145956 -7.291471 -116.546606 48.925077 -97.016665 6.855156 10.044627 -2.839925 
-28.179100 128.338837 87.702698 -112.955817 -4.267480 87.969849 21.626813 8.716628 -2.931934 -1.415437 9.218508 23.475825 -2.244806 9.545463 -11.320298 nan nan nan -19.778850 -9.349212 -19.137618 1.136095 -9.092401 36.274697 2.283500 -0.413339 -22.075419 nan nan nan -3.069970 -1.036503 3.641542 5.473579 -5.169400 9.931500 0.757494 0.353968 -6.249490 1.023445 -9.806637 12.894456 1.849863 -13.030187 15.105301 -10.320093 -10.531180 -2.813187 -69.942354 -44.927936 32.905406 139.000130 -63.094046 -107.790512 -1.696000 -20.528210 -12.565477 11.788356 6.020731 -5.134879 30.754039 22.530651 -7.414828 -115.271240 49.149099 -96.135055 6.369470 10.056222 -3.345678 
